<svg xmlns="http://www.w3.org/2000/svg" xmlns:xlink="http://www.w3.org/1999/xlink" xmlns:lucid="lucid" width="980" height="880"><g transform="translate(0 0)" lucid:page-tab-id="HWEp-vi-RSFO"><path d="M0 0h1760v1360H0z" fill="#fff"/><path d="M196 46h104v814H20V20h168zM20 46h176" stroke="#e5e5e5" stroke-opacity=".25" stroke-width="2" fill="#e5e5e5" fill-opacity=".25"/><use xlink:href="#a" transform="matrix(1,0,0,1,28,20) translate(34.074999999999996 16.6)"/><use xlink:href="#b" transform="matrix(1,0,0,1,32,54) translate(90.05 402.59999999999997)"/><path d="M60 80h200v221H60z" stroke="#333" stroke-width="2" fill="#fff"/><path d="M60 117.6h200M60 263.2h200" stroke="#333" stroke-width="2" fill="none"/><use xlink:href="#c" transform="matrix(1,0,0,1,68,88) translate(69.05 14.6)"/><use xlink:href="#d" transform="matrix(1,0,0,1,72,125.6) translate(61.025 14.600000000000003)"/><use xlink:href="#e" transform="matrix(1,0,0,1,72,125.6) translate(74.05 36.2)"/><use xlink:href="#f" transform="matrix(1,0,0,1,72,125.6) translate(62.525 57.800000000000004)"/><use xlink:href="#g" transform="matrix(1,0,0,1,72,125.6) translate(78.05 79.40000000000002)"/><use xlink:href="#h" transform="matrix(1,0,0,1,72,125.6) translate(48.05 101.00000000000001)"/><use xlink:href="#i" transform="matrix(1,0,0,1,72,125.6) translate(49.525 122.60000000000001)"/><use xlink:href="#j" transform="matrix(1,0,0,1,72,271.2) translate(33.074999999999996 14.6)"/><path d="M60 360h200v134H60z" stroke="#333" stroke-width="2" fill="#fff"/><path d="M60 397.6h200M60 435.2h200" stroke="#333" stroke-width="2" fill="none"/><use xlink:href="#k" transform="matrix(1,0,0,1,68,368) translate(53.1 14.6)"/><use xlink:href="#l" transform="matrix(1,0,0,1,72,405.6) translate(61.55 14.6)"/><use xlink:href="#m" transform="matrix(1,0,0,1,72,443.20000000000005) translate(47.55 14.799999999999999)"/><use xlink:href="#n" transform="matrix(1,0,0,1,72,443.20000000000005) translate(52.025 36.4)"/><path d="M60 540h200v286H60z" stroke="#333" stroke-width="2" fill="#fff"/><path d="M60 577.6h200M60 723.2h200" stroke="#333" stroke-width="2" fill="none"/><use xlink:href="#o" transform="matrix(1,0,0,1,68,548) translate(72.025 14.6)"/><use xlink:href="#p" transform="matrix(1,0,0,1,72,585.6) translate(48.05 14.600000000000003)"/><use xlink:href="#q" transform="matrix(1,0,0,1,72,585.6) translate(65.525 36.2)"/><use xlink:href="#r" transform="matrix(1,0,0,1,72,585.6) translate(49.525 57.800000000000004)"/><use xlink:href="#s" transform="matrix(1,0,0,1,72,585.6) translate(54.05 79.40000000000002)"/><use xlink:href="#t" transform="matrix(1,0,0,1,72,585.6) translate(43.574999999999996 101.00000000000001)"/><use xlink:href="#u" transform="matrix(1,0,0,1,72,585.6) translate(45.075 122.60000000000001)"/><use xlink:href="#v" transform="matrix(1,0,0,1,72,731.2) translate(69.05 14.69999999999999)"/><use xlink:href="#w" transform="matrix(1,0,0,1,72,731.2) translate(61.525 36.29999999999999)"/><use xlink:href="#x" transform="matrix(1,0,0,1,72,731.2) translate(88 57.89999999999999)"/><use xlink:href="#y" transform="matrix(1,0,0,1,72,731.2) translate(5.825000000000003 79.5)"/><path d="M539.78 46h118v214h-320V20h192zm-202 0h202" stroke="#e5e5e5" stroke-opacity=".25" stroke-width="2" fill="#e5e5e5" fill-opacity=".25"/><use xlink:href="#z" transform="matrix(1,0,0,1,345.7777777777778,20) translate(61.2 16.6)"/><path d="M377.78 80h240v40h-240z" stroke="#fcc438" stroke-width="2" fill="#fff"/><use xlink:href="#A" transform="matrix(1,0,0,1,382.7777777777778,85) translate(62.599999999999994 18.6)"/><path d="M377.78 140h240v40h-240z" stroke="#3aa6dd" stroke-width="2" fill="#fff"/><use xlink:href="#B" transform="matrix(1,0,0,1,382.7777777777778,145) translate(59.099999999999994 18.6)"/><path d="M377.78 200h240v40h-240z" stroke="#333" stroke-width="2" fill="#fff"/><use xlink:href="#C" transform="matrix(1,0,0,1,382.7777777777778,205) translate(37.55000000000001 18.6)"/><path d="M539.78 326h118v214h-320V300h192zm-202 0h202" stroke="#e5e5e5" stroke-opacity=".25" stroke-width="2" fill="#e5e5e5" fill-opacity=".25"/><use xlink:href="#D" transform="matrix(1,0,0,1,345.7777777777778,300) translate(48.575 16.6)"/><path d="M377.78 360h240v40h-240z" stroke="#a3d977" stroke-width="2" fill="#fff"/><use xlink:href="#E" transform="matrix(1,0,0,1,382.7777777777778,365) translate(5.100000000000023 18.6)"/><path d="M377.78 420h240v40h-240z" stroke="#99d5ca" stroke-width="2" fill="#fff"/><use xlink:href="#F" transform="matrix(1,0,0,1,382.7777777777778,425) translate(41.55 18.6)"/><path d="M377.78 480h240v40h-240z" stroke="#333" stroke-width="2" fill="#fff"/><use xlink:href="#G" transform="matrix(1,0,0,1,382.7777777777778,485) translate(28.599999999999994 18.6)"/><path d="M376.28 380H302c-6.63 0-12 5.37-12 12v45.37c0 6.63-5.37 12-12 12h-.62" stroke="#a3d977" fill="none"/><path d="M376.78 380.5h-.52v-1h.52z" fill="#a3d977"/><path d="M262.62 449.37l14.26-4.64V454z" stroke="#a3d977" fill="#a3d977"/><path d="M497.78 401.5v1.12" stroke="#333" fill="none"/><path d="M498.28 401.5h-1v-.5h1z" fill="#333"/><path d="M497.78 417.38l-4.64-14.26h9.27z" stroke="#333" fill="#333"/><path d="M497.78 461.5v1.12" stroke="#333" fill="none"/><path d="M498.28 461.5h-1v-.5h1z" fill="#333"/><path d="M497.78 477.38l-4.64-14.26h9.27z" stroke="#333" fill="#333"/><path d="M376.28 440H322c-6.63 0-12-5.37-12-12v-43c-2.76 0-5-2.24-5-5s2.24-5 5-5v-77.5c0-6.64-5.37-12-12-12h-20.62" stroke="#99d5ca" fill="none"/><path d="M376.78 440.5h-.52v-1h.52z" fill="#99d5ca"/><path d="M262.62 285.5l14.26-4.65v9.28z" stroke="#99d5ca" fill="#99d5ca"/><path d="M618.78 121.5c0 4.7 3.8 8.5 8.5 8.5H658c6.63 0 12 5.37 12 12v286c0 6.63-5.37 12-12 12h-22.84" stroke="#333" fill="none"/><path d="M619.28 121.5h-1v-.5h.5v-3h.5z" fill="#333"/><path d="M620.4 440l14.26-4.64v9.28z" stroke="#333" fill="#333"/><path d="M729.78 596H960v264H337.78V570h373zm-392 0h392" stroke="#e5e5e5" stroke-opacity=".25" stroke-width="2" fill="#e5e5e5" fill-opacity=".25"/><use xlink:href="#H" transform="matrix(1,0,0,1,345.77777777777777,570) translate(149.05 16.6)"/><path d="M377.78 620h240v40h-240z" stroke="#0c7cba" stroke-width="2" fill="#fff"/><use xlink:href="#I" transform="matrix(1,0,0,1,382.7777777777778,625) translate(96.05 18.6)"/><path d="M377.78 680h240v40h-240z" stroke="#ef8d22" stroke-width="2" fill="#fff"/><use xlink:href="#J" transform="matrix(1,0,0,1,382.7777777777778,685) translate(88.525 18.6)"/><path d="M377.78 740h240v40h-240z" stroke="#333" stroke-width="2" fill="#fff"/><use xlink:href="#K" transform="matrix(1,0,0,1,382.7777777777778,745) translate(90.525 18.6)"/><path d="M680 800h240v40H680z" stroke="#19967d" stroke-width="2" fill="#fff"/><use xlink:href="#L" transform="matrix(1,0,0,1,685,805) translate(4.700000000000017 18.6)"/><path d="M680 620h200v40H680z" stroke="#333" stroke-width="2" fill="#fff"/><use xlink:href="#M" transform="matrix(1,0,0,1,685,625) translate(14.599999999999994 18.6)"/><path d="M680 700h220v40H680z" stroke="#de5f85" stroke-width="2" fill="#fff"/><use xlink:href="#N" transform="matrix(1,0,0,1,685,705) translate(15.600000000000009 18.6)"/><path d="M376.28 640H322c-6.63 0-12 5.37-12 12v77.76c0 6.63-5.37 12-12 12h-20.62" stroke="#0c7cba" fill="none"/><path d="M376.78 640.5h-.52v-1h.52z" fill="#0c7cba"/><path d="M262.62 741.76l14.26-4.63v9.27z" stroke="#0c7cba" fill="#0c7cba"/><path d="M376.28 700h-14.84c-6.62 0-12 5.37-12 12v43.14c0 6.63-5.37 12-12 12h-60.06" stroke="#ef8d22" fill="none"/><path d="M376.78 700.5h-.52v-1h.52z" fill="#ef8d22"/><path d="M262.62 767.14l14.26-4.64v9.27z" stroke="#ef8d22" fill="#ef8d22"/><path d="M376.28 700h-4.84c-6.62 0-12 5.37-12 12v91.78c0 6.63-5.37 12-12 12h-70.06" stroke="#ef8d22" fill="none"/><path d="M376.78 700.5h-.52v-1h.52z" fill="#ef8d22"/><path d="M262.62 815.78l14.26-4.64v9.27z" stroke="#ef8d22" fill="#ef8d22"/><path d="M678.5 820h-31.72c-5.53 0-10 4.48-10 10s-4.48 10-10 10H42c-6.63 0-12-5.37-12-12v-12c0-6.63 5.37-12 12-12h.62" stroke="#19967d" fill="none"/><path d="M679 820.5h-.5v-1h.5z" fill="#19967d"/><path d="M57.38 804l-14.26 4.64v-9.28z" stroke="#19967d" fill="#19967d"/><path d="M862.78 46H960v154H697.78V20h157zm-165 0h165" stroke="#e5e5e5" stroke-opacity=".25" stroke-width="2" fill="#e5e5e5" fill-opacity=".25"/><use xlink:href="#O" transform="matrix(1,0,0,1,705.7777777777778,20) translate(38.574999999999996 16.6)"/><path d="M717.78 80H940v40H717.78z" stroke="#834187" stroke-width="2" fill="#fff"/><use xlink:href="#P" transform="matrix(1,0,0,1,722.7777777777778,85) translate(89.025 18.6)"/><path d="M716.28 100H702c-6.63 0-12 5.37-12 12v260.5c0 4.14-3.36 7.5-7.5 7.5H675c0-2.76-2.24-5-5-5s-5 2.24-5 5h-29.84" stroke="#834187" fill="none"/><path d="M716.78 100.5h-.52v-1h.52z" fill="#834187"/><path d="M620.4 380l14.26-4.64v9.28z" stroke="#834187" fill="#834187"/><path d="M619.28 640h15.5c2.76 0 5-2.24 5-5s2.24-5 5-5h13.16c.03 0 .06.03.06.06 0 .04.03.07.06.07h4.56" stroke="#0c7cba" fill="none"/><path d="M619.3 640.5h-.52v-1h.5z" fill="#0c7cba"/><path d="M677.38 630.13l-14.26 4.63v-9.27z" stroke="#0c7cba" fill="#0c7cba"/><path d="M619.28 700H640c5.52 0 10 4.48 10 10s4.48 10 10 10h2.62" stroke="#ef8d22" fill="none"/><path d="M619.3 700.5h-.52v-1h.5z" fill="#ef8d22"/><path d="M677.38 720l-14.26 4.64v-9.28z" stroke="#ef8d22" fill="#ef8d22"/><path d="M619.28 640h8.5c6.63 0 12 5.37 12 12v6c0 6.63 5.37 12 12 12H778c6.63 0 12 5.37 12 12v.62" stroke="#0c7cba" fill="none"/><path d="M619.3 640.5h-.52v-1h.5z" fill="#0c7cba"/><path d="M790 697.38l-4.64-14.26h9.28z" stroke="#0c7cba" fill="#0c7cba"/><path d="M935 121.5v628.2c0 5.14-4.16 9.3-9.3 9.3-5.14 0-9.3 4.16-9.3 9.3v14.32" stroke="#834187" fill="none"/><path d="M935.5 121.5h-1v-.5h1z" fill="#834187"/><path d="M916.4 797.38l-4.64-14.26h9.28z" stroke="#834187" fill="#834187"/><path d="M901.5 720c4.7 0 8.5-3.8 8.5-8.5V232c0-6.63-5.37-12-12-12H695c0-2.76-2.24-5-5-5s-5 2.24-5 5h-10c0-2.76-2.24-5-5-5s-5 2.24-5 5h-29.84" stroke="#de5f85" fill="none"/><path d="M901.5 720.5h-.5v-1h.5z" fill="#de5f85"/><path d="M620.4 220l14.26-4.64v9.28z" stroke="#de5f85" fill="#de5f85"/><path d="M800 798.5v-41.12" stroke="#19967d" fill="none"/><path d="M800.5 799h-1v-.5h1z" fill="#19967d"/><path d="M800 742.62l4.64 14.26h-9.28z" stroke="#19967d" fill="#19967d"/><path d="M717.78 140H920v40H717.78z" stroke="#333" stroke-width="2" fill="#fff"/><use xlink:href="#Q" transform="matrix(1,0,0,1,722.7777777777778,145) translate(7.574999999999989 18.6)"/><path d="M619.28 100H668c6.63 0 12 5.37 12 12v45.5c0 1.38 1.12 2.5 2.5 2.5h2.5c0-2.76 2.24-5 5-5s5 2.24 5 5h5.4" stroke="#fcc438" fill="none"/><path d="M619.3 100.5h-.52v-1h.5z" fill="#fcc438"/><path d="M715.16 160l-14.27 4.64v-9.28z" stroke="#fcc438" fill="#fcc438"/><path d="M619.28 160h27.5c6.63 0 12 5.37 12 12v14.9c0 1.7 1.4 3.1 3.1 3.1H665c0-2.76 2.24-5 5-5s5 2.24 5 5h10c0-2.76 2.24-5 5-5s5 2.24 5 5h14.7" stroke="#3aa6dd" fill="none"/><path d="M619.3 160.5h-.52v-1h.5z" fill="#3aa6dd"/><path d="M715.8 181.97l-4.93 14.17-7.4-5.6z" stroke="#3aa6dd" fill="#3aa6dd"/><path d="M889.75 698.5v-39.38c0-.06.06-.12.13-.12.06 0 .12-.06.12-.13V225c-2.76 0-5-2.24-5-5s2.24-5 5-5v-6.5c0-3.6-2.9-6.5-6.5-6.5h-4.6c-2.56 0-4.63-2.07-4.63-4.62" stroke="#de5f85" fill="none"/><path d="M890.25 699h-1v-.5h1z" fill="#de5f85"/><path d="M874.27 182.62l4.64 14.26h-9.26z" stroke="#de5f85" fill="#de5f85"/><path d="M619.28 700H638c6.63 0 12-5.37 12-12v-13c-2.76 0-5-2.24-5-5s2.24-5 5-5v-9.44c0-5.2 4.23-9.43 9.44-9.43h3.18" stroke="#ef8d22" fill="none"/><path d="M619.3 700.5h-.52v-1h.5z" fill="#ef8d22"/><path d="M677.38 646.13l-14.26 4.63v-9.27z" stroke="#ef8d22" fill="#ef8d22"/><path d="M376.28 640H332c-6.63 0-12 5.37-12 12v110.14c-2.76 0-5 2.24-5 5s2.24 5 5 5v21.48c0 6.63-5.37 12-12 12h-30.62" stroke="#0c7cba" fill="none"/><path d="M376.78 640.5h-.52v-1h.52z" fill="#0c7cba"/><path d="M262.62 805.62l14.26-4.64v9.27z" stroke="#0c7cba" fill="#0c7cba"/><defs><path fill="#333" d="M210-169c-67 3-38 105-44 169h-31v-121c0-29-5-50-35-48C34-165 62-65 56 0H25l-1-190h30c1 10-1 24 2 32 10-44 99-50 107 0 11-21 27-35 58-36 85-2 47 119 55 194h-31v-121c0-29-5-49-35-48" id="R"/><path fill="#333" d="M100-194c62-1 85 37 85 99 1 63-27 99-86 99S16-35 15-95c0-66 28-99 85-99zM99-20c44 1 53-31 53-75 0-43-8-75-51-75s-53 32-53 75 10 74 51 75" id="S"/><path fill="#333" d="M85-194c31 0 48 13 60 33l-1-100h32l1 261h-30c-2-10 0-23-3-31C134-8 116 4 85 4 32 4 16-35 15-94c0-66 23-100 70-100zm9 24c-40 0-46 34-46 75 0 40 6 74 45 74 42 0 51-32 51-76 0-42-9-74-50-73" id="T"/><path fill="#333" d="M100-194c63 0 86 42 84 106H49c0 40 14 67 53 68 26 1 43-12 49-29l28 8c-11 28-37 45-77 45C44 4 14-33 15-96c1-61 26-98 85-98zm52 81c6-60-76-77-97-28-3 7-6 17-6 28h103" id="U"/><path fill="#333" d="M24 0v-261h32V0H24" id="V"/><path fill="#333" d="M135-143c-3-34-86-38-87 0 15 53 115 12 119 90S17 21 10-45l28-5c4 36 97 45 98 0-10-56-113-15-118-90-4-57 82-63 122-42 12 7 21 19 24 35" id="W"/><path fill="#333" d="M33 0v-38h34V0H33" id="X"/><path fill="#333" d="M24-231v-30h32v30H24zM-9 49c24 4 33-6 33-30v-209h32V24c2 40-23 58-65 49V49" id="Y"/><g id="a"><use transform="matrix(0.05,0,0,0.05,0,0)" xlink:href="#R"/><use transform="matrix(0.05,0,0,0.05,14.950000000000001,0)" xlink:href="#S"/><use transform="matrix(0.05,0,0,0.05,24.950000000000003,0)" xlink:href="#T"/><use transform="matrix(0.05,0,0,0.05,34.95,0)" xlink:href="#U"/><use transform="matrix(0.05,0,0,0.05,44.95,0)" xlink:href="#V"/><use transform="matrix(0.05,0,0,0.05,48.900000000000006,0)" xlink:href="#W"/><use transform="matrix(0.05,0,0,0.05,57.900000000000006,0)" xlink:href="#X"/><use transform="matrix(0.05,0,0,0.05,62.900000000000006,0)" xlink:href="#Y"/><use transform="matrix(0.05,0,0,0.05,66.85000000000001,0)" xlink:href="#W"/></g><path fill="#333" d="M205 0l-28-72H64L36 0H1l101-248h38L239 0h-34zm-38-99l-47-123c-12 45-31 82-46 123h93" id="Z"/><path fill="#333" d="M59-47c-2 24 18 29 38 22v24C64 9 27 4 27-40v-127H5v-23h24l9-43h21v43h35v23H59v120" id="aa"/><path fill="#333" d="M114-163C36-179 61-72 57 0H25l-1-190h30c1 12-1 29 2 39 6-27 23-49 58-41v29" id="ab"/><path fill="#333" d="M24-231v-30h32v30H24zM24 0v-190h32V0H24" id="ac"/><path fill="#333" d="M115-194c53 0 69 39 70 98 0 66-23 100-70 100C84 3 66-7 56-30L54 0H23l1-261h32v101c10-23 28-34 59-34zm-8 174c40 0 45-34 45-75 0-40-5-75-45-74-42 0-51 32-51 76 0 43 10 73 51 73" id="ad"/><path fill="#333" d="M84 4C-5 8 30-112 23-190h32v120c0 31 7 50 39 49 72-2 45-101 50-169h31l1 190h-30c-1-10 1-25-2-33-11 22-28 36-60 37" id="ae"/><g id="b"><use transform="matrix(0.05,0,0,0.05,0,0)" xlink:href="#Z"/><use transform="matrix(0.05,0,0,0.05,12,0)" xlink:href="#aa"/><use transform="matrix(0.05,0,0,0.05,17,0)" xlink:href="#aa"/><use transform="matrix(0.05,0,0,0.05,22,0)" xlink:href="#ab"/><use transform="matrix(0.05,0,0,0.05,27.950000000000003,0)" xlink:href="#ac"/><use transform="matrix(0.05,0,0,0.05,31.899999999999995,0)" xlink:href="#ad"/><use transform="matrix(0.05,0,0,0.05,41.9,0)" xlink:href="#ae"/><use transform="matrix(0.05,0,0,0.05,51.900000000000006,0)" xlink:href="#aa"/><use transform="matrix(0.05,0,0,0.05,56.900000000000006,0)" xlink:href="#U"/><use transform="matrix(0.05,0,0,0.05,66.9,0)" xlink:href="#W"/></g><path fill="#333" d="M169-182c-1-43-94-46-97-3 18 66 151 10 154 114 3 95-165 93-204 36-6-8-10-19-12-30l50-8c3 46 112 56 116 5-17-69-150-10-154-114-4-87 153-88 188-35 5 8 8 18 10 28" id="af"/><path fill="#333" d="M115-3C79 11 28 4 28-45v-112H4v-33h27l15-45h31v45h36v33H77v99c-1 23 16 31 38 25v30" id="ag"/><path fill="#333" d="M110-194c64 0 96 36 96 99 0 64-35 99-97 99-61 0-95-36-95-99 0-62 34-99 96-99zm-1 164c35 0 45-28 45-65 0-40-10-65-43-65-34 0-45 26-45 65 0 36 10 65 43 65" id="ah"/><path fill="#333" d="M135-150c-39-12-60 13-60 57V0H25l-1-190h47c2 13-1 29 3 40 6-28 27-53 61-41v41" id="ai"/><path fill="#333" d="M123 10C108 53 80 86 19 72V37c35 8 53-11 59-39L3-190h52l48 148c12-52 28-100 44-148h51" id="aj"/><g id="c"><use transform="matrix(0.05,0,0,0.05,0,0)" xlink:href="#af"/><use transform="matrix(0.05,0,0,0.05,12,0)" xlink:href="#ag"/><use transform="matrix(0.05,0,0,0.05,17.95,0)" xlink:href="#ah"/><use transform="matrix(0.05,0,0,0.05,28.899999999999995,0)" xlink:href="#ai"/><use transform="matrix(0.05,0,0,0.05,35.9,0)" xlink:href="#aj"/></g><path fill="#333" d="M179-190L93 31C79 59 56 82 12 73V49c39 6 53-20 64-50L1-190h34L92-34l54-156h33" id="ak"/><path fill="#333" d="M33 0v-248h34V0H33" id="al"/><g id="d"><use transform="matrix(0.05,0,0,0.05,0,0)" xlink:href="#W"/><use transform="matrix(0.05,0,0,0.05,9,0)" xlink:href="#aa"/><use transform="matrix(0.05,0,0,0.05,14,0)" xlink:href="#S"/><use transform="matrix(0.05,0,0,0.05,24,0)" xlink:href="#ab"/><use transform="matrix(0.05,0,0,0.05,29.950000000000003,0)" xlink:href="#ak"/><use transform="matrix(0.05,0,0,0.05,38.95,0)" xlink:href="#al"/><use transform="matrix(0.05,0,0,0.05,43.95,0)" xlink:href="#T"/></g><g id="e"><use transform="matrix(0.05,0,0,0.05,0,0)" xlink:href="#aa"/><use transform="matrix(0.05,0,0,0.05,5,0)" xlink:href="#ac"/><use transform="matrix(0.05,0,0,0.05,8.95,0)" xlink:href="#aa"/><use transform="matrix(0.05,0,0,0.05,13.949999999999998,0)" xlink:href="#V"/><use transform="matrix(0.05,0,0,0.05,17.9,0)" xlink:href="#U"/></g><path fill="#333" d="M141-36C126-15 110 5 73 4 37 3 15-17 15-53c-1-64 63-63 125-63 3-35-9-54-41-54-24 1-41 7-42 31l-33-3c5-37 33-52 76-52 45 0 72 20 72 64v82c-1 20 7 32 28 27v20c-31 9-61-2-59-35zM48-53c0 20 12 33 32 33 41-3 63-29 60-74-43 2-92-5-92 41" id="am"/><path fill="#333" d="M106-169C34-169 62-67 57 0H25v-261h32l-1 103c12-21 28-36 61-36 89 0 53 116 60 194h-32v-121c2-32-8-49-39-48" id="an"/><g id="f"><use transform="matrix(0.05,0,0,0.05,0,0)" xlink:href="#am"/><use transform="matrix(0.05,0,0,0.05,10,0)" xlink:href="#ae"/><use transform="matrix(0.05,0,0,0.05,20,0)" xlink:href="#aa"/><use transform="matrix(0.05,0,0,0.05,25,0)" xlink:href="#an"/><use transform="matrix(0.05,0,0,0.05,35,0)" xlink:href="#S"/><use transform="matrix(0.05,0,0,0.05,45,0)" xlink:href="#ab"/></g><g id="g"><use transform="matrix(0.05,0,0,0.05,0,0)" xlink:href="#ae"/><use transform="matrix(0.05,0,0,0.05,10,0)" xlink:href="#ab"/><use transform="matrix(0.05,0,0,0.05,15.949999999999998,0)" xlink:href="#V"/></g><path fill="#333" d="M117-194c89-4 53 116 60 194h-32v-121c0-31-8-49-39-48C34-167 62-67 57 0H25l-1-190h30c1 10-1 24 2 32 11-22 29-35 61-36" id="ao"/><g id="h"><use transform="matrix(0.05,0,0,0.05,0,0)" xlink:href="#ae"/><use transform="matrix(0.05,0,0,0.05,10,0)" xlink:href="#W"/><use transform="matrix(0.05,0,0,0.05,19,0)" xlink:href="#U"/><use transform="matrix(0.05,0,0,0.05,29,0)" xlink:href="#ab"/><use transform="matrix(0.05,0,0,0.05,34.95,0)" xlink:href="#ao"/><use transform="matrix(0.05,0,0,0.05,44.95,0)" xlink:href="#am"/><use transform="matrix(0.05,0,0,0.05,54.95,0)" xlink:href="#R"/><use transform="matrix(0.05,0,0,0.05,69.9,0)" xlink:href="#U"/></g><path fill="#333" d="M96-169c-40 0-48 33-48 73s9 75 48 75c24 0 41-14 43-38l32 2c-6 37-31 61-74 61-59 0-76-41-82-99-10-93 101-131 147-64 4 7 5 14 7 22l-32 3c-4-21-16-35-41-35" id="ap"/><g id="i"><use transform="matrix(0.05,0,0,0.05,0,0)" xlink:href="#ap"/><use transform="matrix(0.05,0,0,0.05,9,0)" xlink:href="#ab"/><use transform="matrix(0.05,0,0,0.05,14.949999999999998,0)" xlink:href="#U"/><use transform="matrix(0.05,0,0,0.05,24.95,0)" xlink:href="#am"/><use transform="matrix(0.05,0,0,0.05,34.95,0)" xlink:href="#aa"/><use transform="matrix(0.05,0,0,0.05,39.95,0)" xlink:href="#U"/><use transform="matrix(0.05,0,0,0.05,49.95,0)" xlink:href="#T"/><use transform="matrix(0.05,0,0,0.05,59.95,0)" xlink:href="#Z"/><use transform="matrix(0.05,0,0,0.05,71.95,0)" xlink:href="#aa"/></g><path fill="#333" d="M177-190C167-65 218 103 67 71c-23-6-38-20-44-43l32-5c15 47 100 32 89-28v-30C133-14 115 1 83 1 29 1 15-40 15-95c0-56 16-97 71-98 29-1 48 16 59 35 1-10 0-23 2-32h30zM94-22c36 0 50-32 50-73 0-42-14-75-50-75-39 0-46 34-46 75s6 73 46 73" id="aq"/><path fill="#333" d="M197 0v-115H63V0H30v-248h33v105h134v-105h34V0h-34" id="ar"/><path fill="#333" d="M190 0L58-211 59 0H30v-248h39L202-35l-2-213h31V0h-41" id="as"/><g id="j"><use transform="matrix(0.05,0,0,0.05,0,0)" xlink:href="#aq"/><use transform="matrix(0.05,0,0,0.05,10,0)" xlink:href="#U"/><use transform="matrix(0.05,0,0,0.05,20,0)" xlink:href="#aa"/><use transform="matrix(0.05,0,0,0.05,25,0)" xlink:href="#ar"/><use transform="matrix(0.05,0,0,0.05,37.95,0)" xlink:href="#S"/><use transform="matrix(0.05,0,0,0.05,47.95,0)" xlink:href="#W"/><use transform="matrix(0.05,0,0,0.05,56.95,0)" xlink:href="#aa"/><use transform="matrix(0.05,0,0,0.05,61.95,0)" xlink:href="#as"/><use transform="matrix(0.05,0,0,0.05,74.9,0)" xlink:href="#am"/><use transform="matrix(0.05,0,0,0.05,84.9,0)" xlink:href="#R"/><use transform="matrix(0.05,0,0,0.05,99.85000000000001,0)" xlink:href="#U"/></g><path fill="#333" d="M24 0v-248h52v208h133V0H24" id="at"/><path fill="#333" d="M25-224v-37h50v37H25zM25 0v-190h50V0H25" id="au"/><path fill="#333" d="M137-138c1-29-70-34-71-4 15 46 118 7 119 86 1 83-164 76-172 9l43-7c4 19 20 25 44 25 33 8 57-30 24-41C81-84 22-81 20-136c-2-80 154-74 161-7" id="av"/><g id="k"><use transform="matrix(0.05,0,0,0.05,0,0)" xlink:href="#af"/><use transform="matrix(0.05,0,0,0.05,12,0)" xlink:href="#ag"/><use transform="matrix(0.05,0,0,0.05,17.95,0)" xlink:href="#ah"/><use transform="matrix(0.05,0,0,0.05,28.899999999999995,0)" xlink:href="#ai"/><use transform="matrix(0.05,0,0,0.05,35.9,0)" xlink:href="#aj"/><use transform="matrix(0.05,0,0,0.05,45.9,0)" xlink:href="#at"/><use transform="matrix(0.05,0,0,0.05,56.85,0)" xlink:href="#au"/><use transform="matrix(0.05,0,0,0.05,61.85,0)" xlink:href="#av"/><use transform="matrix(0.05,0,0,0.05,71.85,0)" xlink:href="#ag"/></g><g id="l"><use transform="matrix(0.05,0,0,0.05,0,0)" xlink:href="#W"/><use transform="matrix(0.05,0,0,0.05,9,0)" xlink:href="#aa"/><use transform="matrix(0.05,0,0,0.05,14,0)" xlink:href="#S"/><use transform="matrix(0.05,0,0,0.05,24,0)" xlink:href="#ab"/><use transform="matrix(0.05,0,0,0.05,29.950000000000003,0)" xlink:href="#ac"/><use transform="matrix(0.05,0,0,0.05,33.9,0)" xlink:href="#U"/><use transform="matrix(0.05,0,0,0.05,43.9,0)" xlink:href="#W"/></g><path fill="#333" d="M185-189c-5-48-123-54-124 2 14 75 158 14 163 119 3 78-121 87-175 55-17-10-28-26-33-46l33-7c5 56 141 63 141-1 0-78-155-14-162-118-5-82 145-84 179-34 5 7 8 16 11 25" id="aw"/><g id="m"><use transform="matrix(0.05,0,0,0.05,0,0)" xlink:href="#aq"/><use transform="matrix(0.05,0,0,0.05,10,0)" xlink:href="#U"/><use transform="matrix(0.05,0,0,0.05,20,0)" xlink:href="#aa"/><use transform="matrix(0.05,0,0,0.05,25,0)" xlink:href="#aw"/><use transform="matrix(0.05,0,0,0.05,37,0)" xlink:href="#aa"/><use transform="matrix(0.05,0,0,0.05,42,0)" xlink:href="#S"/><use transform="matrix(0.05,0,0,0.05,52,0)" xlink:href="#ab"/><use transform="matrix(0.05,0,0,0.05,57.95,0)" xlink:href="#ac"/><use transform="matrix(0.05,0,0,0.05,61.900000000000006,0)" xlink:href="#U"/><use transform="matrix(0.05,0,0,0.05,71.9,0)" xlink:href="#W"/></g><g id="n"><use transform="matrix(0.05,0,0,0.05,0,0)" xlink:href="#am"/><use transform="matrix(0.05,0,0,0.05,10,0)" xlink:href="#T"/><use transform="matrix(0.05,0,0,0.05,20,0)" xlink:href="#T"/><use transform="matrix(0.05,0,0,0.05,30,0)" xlink:href="#aw"/><use transform="matrix(0.05,0,0,0.05,42,0)" xlink:href="#aa"/><use transform="matrix(0.05,0,0,0.05,47,0)" xlink:href="#S"/><use transform="matrix(0.05,0,0,0.05,57,0)" xlink:href="#ab"/><use transform="matrix(0.05,0,0,0.05,62.95,0)" xlink:href="#ak"/></g><path fill="#333" d="M238-95c0 69-44 99-111 99C63 4 22-25 22-93v-155h51v151c-1 38 19 59 55 60 90 1 49-130 58-211h52v153" id="ax"/><path fill="#333" d="M185-48c-13 30-37 53-82 52C43 2 14-33 14-96s30-98 90-98c62 0 83 45 84 108H66c0 31 8 55 39 56 18 0 30-7 34-22zm-45-69c5-46-57-63-70-21-2 6-4 13-4 21h74" id="ay"/><g id="o"><use transform="matrix(0.05,0,0,0.05,0,0)" xlink:href="#ax"/><use transform="matrix(0.05,0,0,0.05,12.950000000000001,0)" xlink:href="#av"/><use transform="matrix(0.05,0,0,0.05,22.950000000000003,0)" xlink:href="#ay"/><use transform="matrix(0.05,0,0,0.05,32.95,0)" xlink:href="#ai"/></g><g id="p"><use transform="matrix(0.05,0,0,0.05,0,0)" xlink:href="#ae"/><use transform="matrix(0.05,0,0,0.05,10,0)" xlink:href="#W"/><use transform="matrix(0.05,0,0,0.05,19,0)" xlink:href="#U"/><use transform="matrix(0.05,0,0,0.05,29,0)" xlink:href="#ab"/><use transform="matrix(0.05,0,0,0.05,34.95,0)" xlink:href="#ao"/><use transform="matrix(0.05,0,0,0.05,44.95,0)" xlink:href="#am"/><use transform="matrix(0.05,0,0,0.05,54.95,0)" xlink:href="#R"/><use transform="matrix(0.05,0,0,0.05,69.9,0)" xlink:href="#U"/></g><g id="q"><use transform="matrix(0.05,0,0,0.05,0,0)" xlink:href="#ao"/><use transform="matrix(0.05,0,0,0.05,10,0)" xlink:href="#am"/><use transform="matrix(0.05,0,0,0.05,20,0)" xlink:href="#R"/><use transform="matrix(0.05,0,0,0.05,34.95,0)" xlink:href="#U"/></g><g id="r"><use transform="matrix(0.05,0,0,0.05,0,0)" xlink:href="#ap"/><use transform="matrix(0.05,0,0,0.05,9,0)" xlink:href="#ab"/><use transform="matrix(0.05,0,0,0.05,14.949999999999998,0)" xlink:href="#U"/><use transform="matrix(0.05,0,0,0.05,24.95,0)" xlink:href="#am"/><use transform="matrix(0.05,0,0,0.05,34.95,0)" xlink:href="#aa"/><use transform="matrix(0.05,0,0,0.05,39.95,0)" xlink:href="#U"/><use transform="matrix(0.05,0,0,0.05,49.95,0)" xlink:href="#T"/><use transform="matrix(0.05,0,0,0.05,59.95,0)" xlink:href="#Z"/><use transform="matrix(0.05,0,0,0.05,71.95,0)" xlink:href="#aa"/></g><path fill="#333" d="M101-234c-31-9-42 10-38 44h38v23H63V0H32v-167H5v-23h27c-7-52 17-82 69-68v24" id="az"/><path fill="#333" d="M108 0H70L1-190h34L89-25l56-165h34" id="aA"/><g id="s"><use transform="matrix(0.05,0,0,0.05,0,0)" xlink:href="#az"/><use transform="matrix(0.05,0,0,0.05,5,0)" xlink:href="#am"/><use transform="matrix(0.05,0,0,0.05,15,0)" xlink:href="#aA"/><use transform="matrix(0.05,0,0,0.05,24,0)" xlink:href="#S"/><use transform="matrix(0.05,0,0,0.05,34,0)" xlink:href="#ab"/><use transform="matrix(0.05,0,0,0.05,39.95,0)" xlink:href="#ac"/><use transform="matrix(0.05,0,0,0.05,43.900000000000006,0)" xlink:href="#aa"/><use transform="matrix(0.05,0,0,0.05,48.900000000000006,0)" xlink:href="#U"/><use transform="matrix(0.05,0,0,0.05,58.900000000000006,0)" xlink:href="#W"/></g><path fill="#333" d="M206 0h-36l-40-164L89 0H53L-1-190h32L70-26l43-164h34l41 164 42-164h31" id="aB"/><g id="t"><use transform="matrix(0.05,0,0,0.05,0,0)" xlink:href="#S"/><use transform="matrix(0.05,0,0,0.05,10,0)" xlink:href="#aB"/><use transform="matrix(0.05,0,0,0.05,22.950000000000003,0)" xlink:href="#ao"/><use transform="matrix(0.05,0,0,0.05,32.95,0)" xlink:href="#aw"/><use transform="matrix(0.05,0,0,0.05,44.95,0)" xlink:href="#aa"/><use transform="matrix(0.05,0,0,0.05,49.95,0)" xlink:href="#S"/><use transform="matrix(0.05,0,0,0.05,59.95,0)" xlink:href="#ab"/><use transform="matrix(0.05,0,0,0.05,65.9,0)" xlink:href="#ac"/><use transform="matrix(0.05,0,0,0.05,69.85000000000001,0)" xlink:href="#U"/><use transform="matrix(0.05,0,0,0.05,79.85000000000001,0)" xlink:href="#W"/></g><path fill="#333" d="M127-220V0H93v-220H8v-28h204v28h-85" id="aC"/><path fill="#333" d="M143 0L79-87 56-68V0H24v-261h32v163l83-92h37l-77 82L181 0h-38" id="aD"/><g id="u"><use transform="matrix(0.05,0,0,0.05,0,0)" xlink:href="#V"/><use transform="matrix(0.05,0,0,0.05,3.95,0)" xlink:href="#S"/><use transform="matrix(0.05,0,0,0.05,13.949999999999998,0)" xlink:href="#aq"/><use transform="matrix(0.05,0,0,0.05,23.95,0)" xlink:href="#ac"/><use transform="matrix(0.05,0,0,0.05,27.899999999999995,0)" xlink:href="#ao"/><use transform="matrix(0.05,0,0,0.05,37.9,0)" xlink:href="#aC"/><use transform="matrix(0.05,0,0,0.05,46.85,0)" xlink:href="#S"/><use transform="matrix(0.05,0,0,0.05,56.85,0)" xlink:href="#aD"/><use transform="matrix(0.05,0,0,0.05,65.85,0)" xlink:href="#U"/><use transform="matrix(0.05,0,0,0.05,75.85,0)" xlink:href="#ao"/></g><g id="v"><use transform="matrix(0.05,0,0,0.05,0,0)" xlink:href="#V"/><use transform="matrix(0.05,0,0,0.05,3.95,0)" xlink:href="#S"/><use transform="matrix(0.05,0,0,0.05,13.949999999999998,0)" xlink:href="#aq"/><use transform="matrix(0.05,0,0,0.05,23.95,0)" xlink:href="#ac"/><use transform="matrix(0.05,0,0,0.05,27.899999999999995,0)" xlink:href="#ao"/></g><path fill="#333" d="M115-194c55 1 70 41 70 98S169 2 115 4C84 4 66-9 55-30l1 105H24l-1-265h31l2 30c10-21 28-34 59-34zm-8 174c40 0 45-34 45-75s-6-73-45-74c-42 0-51 32-51 76 0 43 10 73 51 73" id="aE"/><g id="w"><use transform="matrix(0.05,0,0,0.05,0,0)" xlink:href="#W"/><use transform="matrix(0.05,0,0,0.05,9,0)" xlink:href="#ac"/><use transform="matrix(0.05,0,0,0.05,12.949999999999998,0)" xlink:href="#aq"/><use transform="matrix(0.05,0,0,0.05,22.95,0)" xlink:href="#ao"/><use transform="matrix(0.05,0,0,0.05,32.95,0)" xlink:href="#ae"/><use transform="matrix(0.05,0,0,0.05,42.95,0)" xlink:href="#aE"/></g><path fill="#333" d="M137 0h-34L2-248h35l83 218 83-218h36" id="aF"/><path fill="#333" d="M212-179c-10-28-35-45-73-45-59 0-87 40-87 99 0 60 29 101 89 101 43 0 62-24 78-52l27 14C228-24 195 4 139 4 59 4 22-46 18-125c-6-104 99-153 187-111 19 9 31 26 39 46" id="aG"/><g id="y"><use transform="matrix(0.05,0,0,0.05,0,0)" xlink:href="#V"/><use transform="matrix(0.05,0,0,0.05,3.95,0)" xlink:href="#S"/><use transform="matrix(0.05,0,0,0.05,13.949999999999998,0)" xlink:href="#aq"/><use transform="matrix(0.05,0,0,0.05,23.95,0)" xlink:href="#ac"/><use transform="matrix(0.05,0,0,0.05,27.899999999999995,0)" xlink:href="#ao"/><use transform="matrix(0.05,0,0,0.05,37.9,0)" xlink:href="#aF"/><use transform="matrix(0.05,0,0,0.05,49.55,0)" xlink:href="#ac"/><use transform="matrix(0.05,0,0,0.05,53.5,0)" xlink:href="#am"/><use transform="matrix(0.05,0,0,0.05,63.5,0)" xlink:href="#aw"/><use transform="matrix(0.05,0,0,0.05,75.5,0)" xlink:href="#aa"/><use transform="matrix(0.05,0,0,0.05,80.5,0)" xlink:href="#S"/><use transform="matrix(0.05,0,0,0.05,90.5,0)" xlink:href="#ab"/><use transform="matrix(0.05,0,0,0.05,96.45,0)" xlink:href="#U"/><use transform="matrix(0.05,0,0,0.05,106.45,0)" xlink:href="#T"/><use transform="matrix(0.05,0,0,0.05,116.45,0)" xlink:href="#aG"/><use transform="matrix(0.05,0,0,0.05,129.4,0)" xlink:href="#ab"/><use transform="matrix(0.05,0,0,0.05,135.35,0)" xlink:href="#U"/><use transform="matrix(0.05,0,0,0.05,145.35,0)" xlink:href="#T"/><use transform="matrix(0.05,0,0,0.05,155.35,0)" xlink:href="#W"/></g><g id="z"><use transform="matrix(0.05,0,0,0.05,0,0)" xlink:href="#ao"/><use transform="matrix(0.05,0,0,0.05,10,0)" xlink:href="#am"/><use transform="matrix(0.05,0,0,0.05,20,0)" xlink:href="#aA"/><use transform="matrix(0.05,0,0,0.05,27.649999999999995,0)" xlink:href="#X"/><use transform="matrix(0.05,0,0,0.05,32.65,0)" xlink:href="#Y"/><use transform="matrix(0.05,0,0,0.05,36.6,0)" xlink:href="#W"/></g><g id="A"><use transform="matrix(0.05,0,0,0.05,0,0)" xlink:href="#ao"/><use transform="matrix(0.05,0,0,0.05,10,0)" xlink:href="#am"/><use transform="matrix(0.05,0,0,0.05,20,0)" xlink:href="#aA"/><use transform="matrix(0.05,0,0,0.05,29,0)" xlink:href="#Z"/><use transform="matrix(0.05,0,0,0.05,41,0)" xlink:href="#V"/><use transform="matrix(0.05,0,0,0.05,44.95,0)" xlink:href="#V"/><use transform="matrix(0.05,0,0,0.05,48.900000000000006,0)" xlink:href="#aw"/><use transform="matrix(0.05,0,0,0.05,60.900000000000006,0)" xlink:href="#aa"/><use transform="matrix(0.05,0,0,0.05,65.9,0)" xlink:href="#S"/><use transform="matrix(0.05,0,0,0.05,75.9,0)" xlink:href="#ab"/><use transform="matrix(0.05,0,0,0.05,81.85000000000001,0)" xlink:href="#ac"/><use transform="matrix(0.05,0,0,0.05,85.80000000000001,0)" xlink:href="#U"/><use transform="matrix(0.05,0,0,0.05,95.80000000000001,0)" xlink:href="#W"/></g><path fill="#333" d="M30 0v-248h33v221h125V0H30" id="aH"/><g id="B"><use transform="matrix(0.05,0,0,0.05,0,0)" xlink:href="#ao"/><use transform="matrix(0.05,0,0,0.05,10,0)" xlink:href="#am"/><use transform="matrix(0.05,0,0,0.05,20,0)" xlink:href="#aA"/><use transform="matrix(0.05,0,0,0.05,29,0)" xlink:href="#aH"/><use transform="matrix(0.05,0,0,0.05,39,0)" xlink:href="#S"/><use transform="matrix(0.05,0,0,0.05,49,0)" xlink:href="#aq"/><use transform="matrix(0.05,0,0,0.05,59,0)" xlink:href="#ac"/><use transform="matrix(0.05,0,0,0.05,62.95,0)" xlink:href="#ao"/><use transform="matrix(0.05,0,0,0.05,72.95,0)" xlink:href="#aG"/><use transform="matrix(0.05,0,0,0.05,85.9,0)" xlink:href="#V"/><use transform="matrix(0.05,0,0,0.05,89.85000000000001,0)" xlink:href="#ac"/><use transform="matrix(0.05,0,0,0.05,93.80000000000001,0)" xlink:href="#ap"/><use transform="matrix(0.05,0,0,0.05,102.80000000000001,0)" xlink:href="#aD"/></g><path fill="#333" d="M140-251c81 0 123 46 123 126C263-46 219 4 140 4 59 4 17-45 17-125s42-126 123-126zm0 227c63 0 89-41 89-101s-29-99-89-99c-61 0-89 39-89 99S79-25 140-24" id="aI"/><g id="C"><use transform="matrix(0.05,0,0,0.05,0,0)" xlink:href="#ae"/><use transform="matrix(0.05,0,0,0.05,10,0)" xlink:href="#aE"/><use transform="matrix(0.05,0,0,0.05,20,0)" xlink:href="#T"/><use transform="matrix(0.05,0,0,0.05,30,0)" xlink:href="#am"/><use transform="matrix(0.05,0,0,0.05,40,0)" xlink:href="#aa"/><use transform="matrix(0.05,0,0,0.05,45,0)" xlink:href="#U"/><use transform="matrix(0.05,0,0,0.05,55,0)" xlink:href="#as"/><use transform="matrix(0.05,0,0,0.05,67.95,0)" xlink:href="#am"/><use transform="matrix(0.05,0,0,0.05,77.95,0)" xlink:href="#aA"/><use transform="matrix(0.05,0,0,0.05,86.95,0)" xlink:href="#aI"/><use transform="matrix(0.05,0,0,0.05,100.95,0)" xlink:href="#ao"/><use transform="matrix(0.05,0,0,0.05,110.95,0)" xlink:href="#aH"/><use transform="matrix(0.05,0,0,0.05,120.95,0)" xlink:href="#S"/><use transform="matrix(0.05,0,0,0.05,130.95,0)" xlink:href="#aq"/><use transform="matrix(0.05,0,0,0.05,140.95,0)" xlink:href="#ac"/><use transform="matrix(0.05,0,0,0.05,144.89999999999998,0)" xlink:href="#ao"/></g><g id="D"><use transform="matrix(0.05,0,0,0.05,0,0)" xlink:href="#W"/><use transform="matrix(0.05,0,0,0.05,9,0)" xlink:href="#aa"/><use transform="matrix(0.05,0,0,0.05,14,0)" xlink:href="#S"/><use transform="matrix(0.05,0,0,0.05,24,0)" xlink:href="#ab"/><use transform="matrix(0.05,0,0,0.05,29.950000000000003,0)" xlink:href="#ac"/><use transform="matrix(0.05,0,0,0.05,33.9,0)" xlink:href="#U"/><use transform="matrix(0.05,0,0,0.05,43.9,0)" xlink:href="#W"/><use transform="matrix(0.05,0,0,0.05,52.900000000000006,0)" xlink:href="#X"/><use transform="matrix(0.05,0,0,0.05,57.900000000000006,0)" xlink:href="#Y"/><use transform="matrix(0.05,0,0,0.05,61.85,0)" xlink:href="#W"/></g><g id="E"><use transform="matrix(0.05,0,0,0.05,0,0)" xlink:href="#aq"/><use transform="matrix(0.05,0,0,0.05,10,0)" xlink:href="#U"/><use transform="matrix(0.05,0,0,0.05,20,0)" xlink:href="#aa"/><use transform="matrix(0.05,0,0,0.05,25,0)" xlink:href="#Z"/><use transform="matrix(0.05,0,0,0.05,37,0)" xlink:href="#ao"/><use transform="matrix(0.05,0,0,0.05,47,0)" xlink:href="#T"/><use transform="matrix(0.05,0,0,0.05,57,0)" xlink:href="#aw"/><use transform="matrix(0.05,0,0,0.05,69,0)" xlink:href="#an"/><use transform="matrix(0.05,0,0,0.05,79,0)" xlink:href="#S"/><use transform="matrix(0.05,0,0,0.05,89,0)" xlink:href="#aB"/><use transform="matrix(0.05,0,0,0.05,101.95,0)" xlink:href="#aw"/><use transform="matrix(0.05,0,0,0.05,113.95,0)" xlink:href="#aa"/><use transform="matrix(0.05,0,0,0.05,118.95,0)" xlink:href="#S"/><use transform="matrix(0.05,0,0,0.05,128.95,0)" xlink:href="#ab"/><use transform="matrix(0.05,0,0,0.05,134.89999999999998,0)" xlink:href="#ac"/><use transform="matrix(0.05,0,0,0.05,138.84999999999997,0)" xlink:href="#U"/><use transform="matrix(0.05,0,0,0.05,148.84999999999997,0)" xlink:href="#W"/><use transform="matrix(0.05,0,0,0.05,157.84999999999997,0)" xlink:href="#aI"/><use transform="matrix(0.05,0,0,0.05,171.84999999999997,0)" xlink:href="#ao"/><use transform="matrix(0.05,0,0,0.05,181.84999999999997,0)" xlink:href="#aw"/><use transform="matrix(0.05,0,0,0.05,193.84999999999997,0)" xlink:href="#aa"/><use transform="matrix(0.05,0,0,0.05,198.84999999999997,0)" xlink:href="#am"/><use transform="matrix(0.05,0,0,0.05,208.84999999999997,0)" xlink:href="#ab"/><use transform="matrix(0.05,0,0,0.05,214.79999999999995,0)" xlink:href="#aa"/></g><path fill="#333" d="M30-248c87 1 191-15 191 75 0 78-77 80-158 76V0H30v-248zm33 125c57 0 124 11 124-50 0-59-68-47-124-48v98" id="aJ"/><g id="F"><use transform="matrix(0.05,0,0,0.05,0,0)" xlink:href="#aE"/><use transform="matrix(0.05,0,0,0.05,10,0)" xlink:href="#ae"/><use transform="matrix(0.05,0,0,0.05,20,0)" xlink:href="#aa"/><use transform="matrix(0.05,0,0,0.05,25,0)" xlink:href="#aw"/><use transform="matrix(0.05,0,0,0.05,37,0)" xlink:href="#aa"/><use transform="matrix(0.05,0,0,0.05,42,0)" xlink:href="#S"/><use transform="matrix(0.05,0,0,0.05,52,0)" xlink:href="#ab"/><use transform="matrix(0.05,0,0,0.05,57.95,0)" xlink:href="#ac"/><use transform="matrix(0.05,0,0,0.05,61.900000000000006,0)" xlink:href="#U"/><use transform="matrix(0.05,0,0,0.05,71.9,0)" xlink:href="#W"/><use transform="matrix(0.05,0,0,0.05,80.9,0)" xlink:href="#aI"/><use transform="matrix(0.05,0,0,0.05,94.9,0)" xlink:href="#ao"/><use transform="matrix(0.05,0,0,0.05,104.9,0)" xlink:href="#aJ"/><use transform="matrix(0.05,0,0,0.05,116.9,0)" xlink:href="#am"/><use transform="matrix(0.05,0,0,0.05,126.9,0)" xlink:href="#aq"/><use transform="matrix(0.05,0,0,0.05,136.9,0)" xlink:href="#U"/></g><path fill="#333" d="M240 0l2-218c-23 76-54 145-80 218h-23L58-218 59 0H30v-248h44l77 211c21-75 51-140 76-211h43V0h-30" id="aK"/><g id="G"><use transform="matrix(0.05,0,0,0.05,0,0)" xlink:href="#aq"/><use transform="matrix(0.05,0,0,0.05,10,0)" xlink:href="#U"/><use transform="matrix(0.05,0,0,0.05,20,0)" xlink:href="#ao"/><use transform="matrix(0.05,0,0,0.05,30,0)" xlink:href="#U"/><use transform="matrix(0.05,0,0,0.05,40,0)" xlink:href="#ab"/><use transform="matrix(0.05,0,0,0.05,45.95,0)" xlink:href="#am"/><use transform="matrix(0.05,0,0,0.05,55.95,0)" xlink:href="#aa"/><use transform="matrix(0.05,0,0,0.05,60.95,0)" xlink:href="#U"/><use transform="matrix(0.05,0,0,0.05,70.95,0)" xlink:href="#aw"/><use transform="matrix(0.05,0,0,0.05,82.95,0)" xlink:href="#aa"/><use transform="matrix(0.05,0,0,0.05,87.95,0)" xlink:href="#S"/><use transform="matrix(0.05,0,0,0.05,97.95,0)" xlink:href="#ab"/><use transform="matrix(0.05,0,0,0.05,103.9,0)" xlink:href="#ak"/><use transform="matrix(0.05,0,0,0.05,112.9,0)" xlink:href="#aK"/><use transform="matrix(0.05,0,0,0.05,127.85000000000001,0)" xlink:href="#am"/><use transform="matrix(0.05,0,0,0.05,137.85000000000002,0)" xlink:href="#ab"/><use transform="matrix(0.05,0,0,0.05,143.8,0)" xlink:href="#aD"/><use transform="matrix(0.05,0,0,0.05,152.8,0)" xlink:href="#ae"/><use transform="matrix(0.05,0,0,0.05,162.8,0)" xlink:href="#aE"/></g><g id="H"><use transform="matrix(0.05,0,0,0.05,0,0)" xlink:href="#ae"/><use transform="matrix(0.05,0,0,0.05,10,0)" xlink:href="#W"/><use transform="matrix(0.05,0,0,0.05,19,0)" xlink:href="#U"/><use transform="matrix(0.05,0,0,0.05,29,0)" xlink:href="#ab"/><use transform="matrix(0.05,0,0,0.05,33.95,0)" xlink:href="#X"/><use transform="matrix(0.05,0,0,0.05,38.95,0)" xlink:href="#Y"/><use transform="matrix(0.05,0,0,0.05,42.900000000000006,0)" xlink:href="#W"/></g><g id="I"><use transform="matrix(0.05,0,0,0.05,0,0)" xlink:href="#V"/><use transform="matrix(0.05,0,0,0.05,3.95,0)" xlink:href="#S"/><use transform="matrix(0.05,0,0,0.05,13.949999999999998,0)" xlink:href="#aq"/><use transform="matrix(0.05,0,0,0.05,23.95,0)" xlink:href="#ac"/><use transform="matrix(0.05,0,0,0.05,27.899999999999995,0)" xlink:href="#ao"/></g><g id="J"><use transform="matrix(0.05,0,0,0.05,0,0)" xlink:href="#W"/><use transform="matrix(0.05,0,0,0.05,9,0)" xlink:href="#ac"/><use transform="matrix(0.05,0,0,0.05,12.949999999999998,0)" xlink:href="#aq"/><use transform="matrix(0.05,0,0,0.05,22.95,0)" xlink:href="#ao"/><use transform="matrix(0.05,0,0,0.05,32.95,0)" xlink:href="#ae"/><use transform="matrix(0.05,0,0,0.05,42.95,0)" xlink:href="#aE"/></g><g id="K"><use transform="matrix(0.05,0,0,0.05,0,0)" xlink:href="#V"/><use transform="matrix(0.05,0,0,0.05,3.95,0)" xlink:href="#S"/><use transform="matrix(0.05,0,0,0.05,13.949999999999998,0)" xlink:href="#aq"/><use transform="matrix(0.05,0,0,0.05,23.95,0)" xlink:href="#S"/><use transform="matrix(0.05,0,0,0.05,33.95,0)" xlink:href="#ae"/><use transform="matrix(0.05,0,0,0.05,43.95,0)" xlink:href="#aa"/></g><path fill="#333" d="M63-220v92h138v28H63V0H30v-248h175v28H63" id="aL"/><path fill="#333" d="M233-177c-1 41-23 64-60 70L243 0h-38l-65-103H63V0H30v-248c88 3 205-21 203 71zM63-129c60-2 137 13 137-47 0-61-80-42-137-45v92" id="aM"/><path fill="#333" d="M232-93c-1 65-40 97-104 97C67 4 28-28 28-90v-158h33c8 89-33 224 67 224 102 0 64-133 71-224h33v155" id="aN"/><g id="L"><use transform="matrix(0.05,0,0,0.05,0,0)" xlink:href="#ap"/><use transform="matrix(0.05,0,0,0.05,9,0)" xlink:href="#an"/><use transform="matrix(0.05,0,0,0.05,19,0)" xlink:href="#U"/><use transform="matrix(0.05,0,0,0.05,29,0)" xlink:href="#ap"/><use transform="matrix(0.05,0,0,0.05,38,0)" xlink:href="#aD"/><use transform="matrix(0.05,0,0,0.05,47,0)" xlink:href="#aL"/><use transform="matrix(0.05,0,0,0.05,57.95,0)" xlink:href="#S"/><use transform="matrix(0.05,0,0,0.05,67.95,0)" xlink:href="#ab"/><use transform="matrix(0.05,0,0,0.05,73.9,0)" xlink:href="#aM"/><use transform="matrix(0.05,0,0,0.05,86.85000000000001,0)" xlink:href="#U"/><use transform="matrix(0.05,0,0,0.05,96.85000000000001,0)" xlink:href="#R"/><use transform="matrix(0.05,0,0,0.05,111.80000000000001,0)" xlink:href="#U"/><use transform="matrix(0.05,0,0,0.05,121.80000000000001,0)" xlink:href="#R"/><use transform="matrix(0.05,0,0,0.05,136.75,0)" xlink:href="#ad"/><use transform="matrix(0.05,0,0,0.05,146.75,0)" xlink:href="#U"/><use transform="matrix(0.05,0,0,0.05,156.75,0)" xlink:href="#ab"/><use transform="matrix(0.05,0,0,0.05,162.7,0)" xlink:href="#U"/><use transform="matrix(0.05,0,0,0.05,172.7,0)" xlink:href="#T"/><use transform="matrix(0.05,0,0,0.05,182.7,0)" xlink:href="#aN"/><use transform="matrix(0.05,0,0,0.05,195.64999999999998,0)" xlink:href="#W"/><use transform="matrix(0.05,0,0,0.05,204.64999999999998,0)" xlink:href="#U"/><use transform="matrix(0.05,0,0,0.05,214.64999999999998,0)" xlink:href="#ab"/></g><g id="M"><use transform="matrix(0.05,0,0,0.05,0,0)" xlink:href="#W"/><use transform="matrix(0.05,0,0,0.05,9,0)" xlink:href="#am"/><use transform="matrix(0.05,0,0,0.05,19,0)" xlink:href="#aA"/><use transform="matrix(0.05,0,0,0.05,28,0)" xlink:href="#U"/><use transform="matrix(0.05,0,0,0.05,38,0)" xlink:href="#aN"/><use transform="matrix(0.05,0,0,0.05,50.95,0)" xlink:href="#W"/><use transform="matrix(0.05,0,0,0.05,59.95,0)" xlink:href="#U"/><use transform="matrix(0.05,0,0,0.05,69.95,0)" xlink:href="#ab"/><use transform="matrix(0.05,0,0,0.05,75.9,0)" xlink:href="#aG"/><use transform="matrix(0.05,0,0,0.05,88.85000000000001,0)" xlink:href="#ab"/><use transform="matrix(0.05,0,0,0.05,94.80000000000001,0)" xlink:href="#U"/><use transform="matrix(0.05,0,0,0.05,104.80000000000001,0)" xlink:href="#T"/><use transform="matrix(0.05,0,0,0.05,114.80000000000001,0)" xlink:href="#W"/><use transform="matrix(0.05,0,0,0.05,123.80000000000001,0)" xlink:href="#al"/><use transform="matrix(0.05,0,0,0.05,128.8,0)" xlink:href="#ao"/><use transform="matrix(0.05,0,0,0.05,138.8,0)" xlink:href="#aH"/><use transform="matrix(0.05,0,0,0.05,148.8,0)" xlink:href="#aw"/></g><g id="N"><use transform="matrix(0.05,0,0,0.05,0,0)" xlink:href="#ae"/><use transform="matrix(0.05,0,0,0.05,10,0)" xlink:href="#aE"/><use transform="matrix(0.05,0,0,0.05,20,0)" xlink:href="#T"/><use transform="matrix(0.05,0,0,0.05,30,0)" xlink:href="#am"/><use transform="matrix(0.05,0,0,0.05,40,0)" xlink:href="#aa"/><use transform="matrix(0.05,0,0,0.05,45,0)" xlink:href="#U"/><use transform="matrix(0.05,0,0,0.05,55,0)" xlink:href="#aN"/><use transform="matrix(0.05,0,0,0.05,67.95,0)" xlink:href="#al"/><use transform="matrix(0.05,0,0,0.05,72.95,0)" xlink:href="#aI"/><use transform="matrix(0.05,0,0,0.05,86.95,0)" xlink:href="#ao"/><use transform="matrix(0.05,0,0,0.05,96.95,0)" xlink:href="#aN"/><use transform="matrix(0.05,0,0,0.05,109.9,0)" xlink:href="#W"/><use transform="matrix(0.05,0,0,0.05,118.9,0)" xlink:href="#U"/><use transform="matrix(0.05,0,0,0.05,128.9,0)" xlink:href="#ab"/><use transform="matrix(0.05,0,0,0.05,134.85,0)" xlink:href="#aH"/><use transform="matrix(0.05,0,0,0.05,144.85,0)" xlink:href="#S"/><use transform="matrix(0.05,0,0,0.05,154.85,0)" xlink:href="#aq"/><use transform="matrix(0.05,0,0,0.05,164.85,0)" xlink:href="#ac"/><use transform="matrix(0.05,0,0,0.05,168.79999999999998,0)" xlink:href="#ao"/></g><g id="O"><use transform="matrix(0.05,0,0,0.05,0,0)" xlink:href="#R"/><use transform="matrix(0.05,0,0,0.05,14.950000000000001,0)" xlink:href="#am"/><use transform="matrix(0.05,0,0,0.05,24.950000000000003,0)" xlink:href="#ac"/><use transform="matrix(0.05,0,0,0.05,28.900000000000002,0)" xlink:href="#ao"/><use transform="matrix(0.05,0,0,0.05,38.900000000000006,0)" xlink:href="#X"/><use transform="matrix(0.05,0,0,0.05,43.900000000000006,0)" xlink:href="#Y"/><use transform="matrix(0.05,0,0,0.05,47.85000000000001,0)" xlink:href="#W"/></g><g id="P"><use transform="matrix(0.05,0,0,0.05,0,0)" xlink:href="#W"/><use transform="matrix(0.05,0,0,0.05,9,0)" xlink:href="#aa"/><use transform="matrix(0.05,0,0,0.05,14,0)" xlink:href="#am"/><use transform="matrix(0.05,0,0,0.05,24,0)" xlink:href="#ab"/><use transform="matrix(0.05,0,0,0.05,29.950000000000003,0)" xlink:href="#aa"/></g><g id="Q"><use transform="matrix(0.05,0,0,0.05,0,0)" xlink:href="#an"/><use transform="matrix(0.05,0,0,0.05,10,0)" xlink:href="#ac"/><use transform="matrix(0.05,0,0,0.05,13.949999999999998,0)" xlink:href="#T"/><use transform="matrix(0.05,0,0,0.05,23.95,0)" xlink:href="#U"/><use transform="matrix(0.05,0,0,0.05,33.95,0)" xlink:href="#aJ"/><use transform="matrix(0.05,0,0,0.05,45.95,0)" xlink:href="#am"/><use transform="matrix(0.05,0,0,0.05,55.95,0)" xlink:href="#aq"/><use transform="matrix(0.05,0,0,0.05,65.95,0)" xlink:href="#U"/><use transform="matrix(0.05,0,0,0.05,75.95,0)" xlink:href="#aG"/><use transform="matrix(0.05,0,0,0.05,88.9,0)" xlink:href="#S"/><use transform="matrix(0.05,0,0,0.05,98.9,0)" xlink:href="#R"/><use transform="matrix(0.05,0,0,0.05,113.85000000000001,0)" xlink:href="#aE"/><use transform="matrix(0.05,0,0,0.05,123.85000000000001,0)" xlink:href="#S"/><use transform="matrix(0.05,0,0,0.05,133.85000000000002,0)" xlink:href="#ao"/><use transform="matrix(0.05,0,0,0.05,143.85000000000002,0)" xlink:href="#U"/><use transform="matrix(0.05,0,0,0.05,153.85000000000002,0)" xlink:href="#ao"/><use transform="matrix(0.05,0,0,0.05,163.85000000000002,0)" xlink:href="#aa"/><use transform="matrix(0.05,0,0,0.05,168.85000000000002,0)" xlink:href="#W"/></g></defs></g></svg>